<svg width="41" height="10" viewBox="0 0 41 10" fill="none" xmlns="http://www.w3.org/2000/svg">
<path d="M4.104 8.856V2.184C4.104 1.44 4.308 0.892 4.716 0.54C5.132 0.18 5.744 0 6.552 0H7.368V1.284H6.432C6.184 1.284 5.992 1.352 5.856 1.488C5.728 1.616 5.664 1.8 5.664 2.04V8.856H4.104ZM3.288 3.672V2.448H7.476V3.672H3.288Z" fill="#F3BA25"/>
<path d="M7.53487 8.856V2.34H8.85488V5.1H8.81888C8.81888 4.164 9.01887 3.456 9.41887 2.976C9.81887 2.496 10.4069 2.256 11.1829 2.256H11.4229V3.708H10.9669C10.4069 3.708 9.97088 3.86 9.65888 4.164C9.35488 4.46 9.20288 4.892 9.20288 5.46V8.856H7.53487Z" fill="#F3BA25"/>
<path d="M14.4479 9.084C13.8879 9.084 13.3959 8.988 12.9719 8.796C12.5559 8.604 12.2079 8.348 11.9279 8.028C11.6559 7.7 11.4479 7.336 11.3039 6.936C11.1679 6.536 11.0999 6.128 11.0999 5.712V5.484C11.0999 5.052 11.1679 4.636 11.3039 4.236C11.4479 3.828 11.6559 3.468 11.9279 3.156C12.2079 2.836 12.5519 2.584 12.9599 2.4C13.3679 2.208 13.8399 2.112 14.3759 2.112C15.0799 2.112 15.6679 2.268 16.1399 2.58C16.6199 2.884 16.9799 3.288 17.2199 3.792C17.4599 4.288 17.5799 4.824 17.5799 5.4V6H11.8079V4.98H16.5359L16.0199 5.484C16.0199 5.068 15.9599 4.712 15.8399 4.416C15.7199 4.12 15.5359 3.892 15.2879 3.732C15.0479 3.572 14.7439 3.492 14.3759 3.492C14.0079 3.492 13.6959 3.576 13.4399 3.744C13.1839 3.912 12.9879 4.156 12.8519 4.476C12.7239 4.788 12.6599 5.164 12.6599 5.604C12.6599 6.012 12.7239 6.376 12.8519 6.696C12.9799 7.008 13.1759 7.256 13.4399 7.44C13.7039 7.616 14.0399 7.704 14.4479 7.704C14.8559 7.704 15.1879 7.624 15.4439 7.464C15.6999 7.296 15.8639 7.092 15.9359 6.852H17.4719C17.3759 7.3 17.1919 7.692 16.9199 8.028C16.6479 8.364 16.2999 8.624 15.8759 8.808C15.4599 8.992 14.9839 9.084 14.4479 9.084Z" fill="#F3BA25"/>
<path d="M20.9293 9.084C20.3693 9.084 19.8773 8.988 19.4533 8.796C19.0373 8.604 18.6893 8.348 18.4093 8.028C18.1373 7.7 17.9293 7.336 17.7853 6.936C17.6493 6.536 17.5813 6.128 17.5813 5.712V5.484C17.5813 5.052 17.6493 4.636 17.7853 4.236C17.9293 3.828 18.1373 3.468 18.4093 3.156C18.6893 2.836 19.0333 2.584 19.4413 2.4C19.8493 2.208 20.3213 2.112 20.8573 2.112C21.5613 2.112 22.1493 2.268 22.6213 2.58C23.1013 2.884 23.4613 3.288 23.7013 3.792C23.9413 4.288 24.0613 4.824 24.0613 5.4V6H18.2893V4.98H23.0173L22.5013 5.484C22.5013 5.068 22.4413 4.712 22.3213 4.416C22.2013 4.12 22.0173 3.892 21.7693 3.732C21.5293 3.572 21.2253 3.492 20.8573 3.492C20.4893 3.492 20.1773 3.576 19.9213 3.744C19.6653 3.912 19.4693 4.156 19.3333 4.476C19.2053 4.788 19.1413 5.164 19.1413 5.604C19.1413 6.012 19.2053 6.376 19.3333 6.696C19.4613 7.008 19.6573 7.256 19.9213 7.44C20.1853 7.616 20.5213 7.704 20.9293 7.704C21.3373 7.704 21.6693 7.624 21.9253 7.464C22.1813 7.296 22.3453 7.092 22.4173 6.852H23.9533C23.8573 7.3 23.6733 7.692 23.4013 8.028C23.1293 8.364 22.7813 8.624 22.3573 8.808C21.9413 8.992 21.4653 9.084 20.9293 9.084Z" fill="#F3BA25"/>
<path d="M24.5787 8.856V0.0960002H26.2467V8.856H24.5787ZM23.7627 1.344V0.0960002H26.2467V1.344H23.7627Z" fill="#F3BA25"/>
<path d="M40.726 3.99411C40.4589 3.3651 40.0151 2.83133 39.4557 2.45351C39.1773 2.26573 38.8693 2.11637 38.5387 2.01452C38.2103 1.91045 37.8594 1.85611 37.4972 1.85611C37.0329 1.85611 36.5868 1.94671 36.1793 2.11197C36.1453 2.12541 36.1136 2.13891 36.082 2.15481C35.7152 2.31543 35.38 2.54167 35.0925 2.81098C34.9997 2.89914 34.9114 2.99192 34.823 3.09599C34.6669 3.27472 34.5061 3.48064 34.3498 3.68874C34.3181 3.73158 34.2841 3.77688 34.2525 3.81999C34.1665 3.93753 33.3444 5.14118 33.1995 5.35614C33.127 5.4646 33.041 5.58678 32.9481 5.72024C32.9277 5.74964 32.9052 5.78144 32.8827 5.81302C32.7285 6.03244 32.5565 6.2633 32.398 6.46701C32.3188 6.56864 32.2394 6.66363 32.1715 6.74295C32.1014 6.82425 32.038 6.88988 31.9926 6.93294C31.7981 7.1161 31.5692 7.26546 31.318 7.36731C31.0666 7.46916 30.7926 7.52572 30.5027 7.52572C30.3035 7.52572 30.1111 7.49851 29.93 7.44881C29.8372 7.42387 29.7465 7.39226 29.6583 7.35382C29.2687 7.19076 28.9359 6.91482 28.7026 6.56861C28.585 6.39452 28.4921 6.20451 28.4287 6.0008C28.3676 5.7971 28.3314 5.58235 28.3314 5.35611C28.3314 5.0552 28.3926 4.7724 28.5012 4.51211C28.6666 4.12306 28.9427 3.79278 29.2892 3.55746C29.4635 3.43971 29.6536 3.34933 29.8575 3.28592C30.0612 3.22251 30.2763 3.18653 30.5027 3.18653C30.7926 3.18871 31.0666 3.24308 31.318 3.34472C31.5692 3.44875 31.7981 3.59591 31.9926 3.77906C32.038 3.82215 32.1014 3.88996 32.1715 3.96927C32.2938 4.11178 32.4386 4.29494 32.5837 4.48739C32.6403 4.56427 32.6969 4.64115 32.7535 4.72024C32.9709 4.40365 33.3512 3.84709 33.5504 3.55965C33.5166 3.51435 33.4825 3.4693 33.4487 3.424C33.358 3.30843 33.2674 3.19776 33.177 3.09591C33.0863 2.99184 33.0003 2.89906 32.9074 2.81089C32.595 2.51659 32.2259 2.27691 31.8206 2.11186C31.4131 1.9466 30.9669 1.856 30.5027 1.856C30.0205 1.856 29.5586 1.95343 29.1375 2.13216C28.508 2.39684 27.9758 2.84026 27.5977 3.399C27.4097 3.6774 27.2605 3.98714 27.1563 4.31524C27.0544 4.64563 27 4.99405 27 5.35616C27 5.83802 27.0973 6.29956 27.274 6.718C27.5411 7.34923 27.9849 7.88103 28.5419 8.25882C28.8227 8.44662 29.1307 8.59574 29.4613 8.69981C29.7896 8.80166 30.1406 8.856 30.5028 8.856C30.9669 8.856 31.4131 8.7654 31.8206 8.60039C32.226 8.43512 32.5928 8.19538 32.9052 7.90354L32.9074 7.90133C33.0003 7.81537 33.0863 7.72016 33.177 7.6161C33.3331 7.43736 33.4938 7.23166 33.6502 7.02353C33.6818 6.98045 33.7158 6.93736 33.7475 6.8945C33.8335 6.77453 34.959 5.12525 35.0516 4.99181C35.0722 4.96242 35.0948 4.93083 35.1173 4.89903C35.2714 4.68183 35.4435 4.44878 35.602 4.2453C35.6811 4.14344 35.7605 4.04842 35.8284 3.96933C35.8985 3.8878 35.962 3.82218 36.0073 3.77912C36.2019 3.59596 36.4308 3.44881 36.682 3.34477C36.7432 3.32002 36.8042 3.29972 36.8677 3.27915C37.0669 3.22041 37.2774 3.1888 37.4972 3.18658C37.7983 3.18877 38.0836 3.24756 38.3416 3.35846C38.731 3.52129 39.0641 3.79723 39.2971 4.14344C39.415 4.31775 39.5078 4.50777 39.5711 4.71123C39.6345 4.91493 39.6686 5.12989 39.6686 5.35614C39.6686 5.65705 39.6073 5.94206 39.4988 6.19989C39.3334 6.58894 39.0572 6.92168 38.7107 7.15454C38.5365 7.27229 38.3463 7.3651 38.1424 7.42608C37.941 7.48949 37.7236 7.52575 37.4972 7.52575C37.2073 7.52575 36.9333 7.46919 36.6819 7.36734C36.4307 7.26549 36.2019 7.11612 36.0073 6.93296C35.9619 6.88988 35.8985 6.82207 35.8284 6.74297C35.7061 6.60268 35.5611 6.41709 35.4162 6.22489C35.3574 6.14798 35.3008 6.06867 35.2442 5.98957C35.2261 6.01673 35.2079 6.04394 35.1876 6.07331C34.8139 6.62079 34.5784 6.96698 34.4495 7.15456C34.4833 7.19986 34.5174 7.24295 34.5512 7.28824C34.6419 7.40357 34.7325 7.51449 34.8229 7.6161C34.9114 7.72013 34.9996 7.81537 35.0925 7.90133C35.4049 8.19538 35.774 8.43512 36.1793 8.60039C36.5868 8.7654 37.0328 8.856 37.4972 8.856C37.9794 8.856 38.4414 8.75879 38.8602 8.58227C39.4919 8.31537 40.0239 7.87196 40.4022 7.313C40.59 7.03484 40.7419 6.72707 40.8436 6.39676C40.9456 6.06867 41 5.71806 41 5.35616C41 4.87431 40.9027 4.41277 40.726 3.99411Z" fill="#F3BA25"/>
<path d="M3 7.356C3 8.18443 2.32843 8.856 1.5 8.856C0.671573 8.856 0 8.18443 0 7.356C0 6.52757 0.671573 5.856 1.5 5.856C2.32843 5.856 3 6.52757 3 7.356Z" fill="#F3BA25"/>
<path d="M32 5.356C32 6.18443 31.3284 6.856 30.5 6.856C29.6716 6.856 29 6.18443 29 5.356C29 4.52757 29.6716 3.856 30.5 3.856C31.3284 3.856 32 4.52757 32 5.356Z" fill="#F3BA25"/>
<path d="M39 5.356C39 6.18443 38.3284 6.856 37.5 6.856C36.6716 6.856 36 6.18443 36 5.356C36 4.52757 36.6716 3.856 37.5 3.856C38.3284 3.856 39 4.52757 39 5.356Z" fill="#F3BA25"/>
</svg>
